<svg xmlns="http://www.w3.org/2000/svg" xmlns:xlink="http://www.w3.org/1999/xlink" xmlns:sketch="http://www.bohemiancoding.com/sketch/ns" viewBox="0 0 32 40" version="1.1" x="0px" y="0px"><title>apple_069-sad-glare-face-avatar-emoticon</title><desc>Created with Sketch.</desc><g stroke="none" stroke-width="1" fill="none" fill-rule="evenodd" sketch:type="MSPage"><g sketch:type="MSLayerGroup" transform="translate(-380.000000, -287.000000)"><g transform="translate(384.000000, 288.000000)" sketch:type="MSShapeGroup"><path d="M12.4452421,5.82602841 C13.1682633,3.78865677 15.0799169,1.17801556 17.1828488,0.385529089 C17.9698185,0.0889608091 18.8690865,-0.0277456631 19.8542935,0.00548307159 C21.0553657,0.0459924331 22.2904083,0.300487092 23.4511688,0.669050595 C23.8245678,0.787611884 24.7689069,1.16235611 24.7689069,1.16235611 C24.7689069,1.16235611 24.2638329,2.08782879 24.0265937,2.42984547 C23.6333558,2.99675841 23.1700401,3.55122973 22.6372274,4.05350041 C21.4570039,5.16607069 20.1074514,5.8652862 18.5971577,5.96596613 C15.4663212,6.17467573 14.2663908,6.45409491 12.9474816,7.26520745 L12.4846613,7.54983612 C12.483987,7.90666339 12.4781003,8.25739683 12.4678698,8.59789474 C12.4619122,8.79617809 12.4559158,8.93921829 12.4518343,9.01733741 C12.4374265,9.29310366 12.2021939,9.50497651 11.9264276,9.49056866 C11.6506614,9.47616081 11.4387885,9.24092822 11.4531964,8.96516197 C11.4569049,8.89418063 11.4625934,8.75848506 11.4683209,8.56786249 C11.5053884,7.33416242 11.4836019,5.95802408 11.3599518,4.66471565 C11.185657,2.84169478 10.8268865,1.5183381 10.3103986,0.979791327 C10.1192609,0.780490154 10.1258786,0.463976839 10.3251798,0.272839052 C10.5244809,0.0817012645 10.8409942,0.0883189958 11.032132,0.287620168 C11.7581564,1.04465259 12.160184,2.52756708 12.3554124,4.56954199 C12.3949928,4.9835292 12.4244928,5.40447198 12.4452421,5.82602841 Z" fill="#000000"/><path d="M0,15.5908074 C0,13.0657158 1.42895447,9.5116141 4.61403986,8.25263298 C7.79912524,6.99365181 9.24503319,8.70298687 11.969697,8.70298687 C14.6614848,8.70298687 15.53615,6.88229073 19.3231966,8.45081673 C23.1102431,10.019343 23.9393939,13.0443533 23.9393939,15.5908074 C23.9393939,19.3809477 20.4893811,27.3357362 14.9665564,28.8596751 C14.2300982,29.0628895 12.8980109,28.4241407 11.969697,28.4241407 C11.0413831,28.4241409 9.801991,29.2510429 8.78922421,28.8596744 C3.72229618,26.9016364 0,19.1707953 0,15.5908074 Z M11.969697,27.4241407 C13.114624,27.4241409 14.298948,27.9980769 14.7005623,27.8957004 C18.8337402,26.842102 22.9393939,20.0014085 22.9393939,15.5908074 C22.9393939,12.678471 21.8051738,10.561187 18.9405382,9.37470662 C17.207346,8.65684985 16.3570289,8.66542493 14.8371676,9.14569936 C14.7354168,9.17795943 13.47052,9.70298688 11.969697,9.70298687 C10.4688739,9.70298686 8.79460387,9.12869116 8.69676489,9.10140616 C7.18050219,8.67855604 6.31384134,8.65603248 4.98163848,9.18261752 C2.56347091,10.1384561 1,12.9565551 1,15.5908074 C1,19.5218782 5.06789469,26.3495536 9.14968136,27.9268986 C9.81964111,28.1047973 10.8247699,27.4241406 11.969697,27.4241407 Z" fill="#000000"/></g></g><path d="M19,18 C18.7238576,18 18.5,17.7761424 18.5,17.5 C18.5,17.2238576 18.7238576,17 19,17 L22.5,17 C22.7761424,17 23,17.2238576 23,17.5 C22.9999994,18.3284277 22.3284268,19 21.5,19 C20.8468906,19 20.2912711,18.5825962 20.0853529,18 L19,18 Z M9,18 C8.72385763,18 8.5,17.7761424 8.5,17.5 C8.5,17.2238576 8.72385763,17 9,17 L12.5,17 C12.7761424,17 13,17.2238576 13,17.5 C12.9999994,18.3284277 12.3284268,19 11.5,19 C10.8468906,19 10.2912711,18.5825962 10.0853529,18 L9,18 Z M14.4246316,24.7639848 C14.4725953,24.6868331 14.5938453,24.5444206 14.7863941,24.3975309 C15.1127054,24.1485979 15.512309,24 16,24 C16.487691,24 16.8872946,24.1485979 17.2136059,24.3975309 C17.4061547,24.5444206 17.5274047,24.6868331 17.5753684,24.7639848 C17.7211632,24.9985024 18.0294673,25.0704264 18.2639848,24.9246316 C18.4985024,24.7788368 18.5704264,24.4705327 18.4246316,24.2360152 C18.3171754,24.0631669 18.1191505,23.8305794 17.8201344,23.6024691 C17.3271707,23.2264021 16.7183393,23 16,23 C15.2816607,23 14.6728293,23.2264021 14.1798656,23.6024691 C13.8808495,23.8305794 13.6828246,24.0631669 13.5753684,24.2360152 C13.4295736,24.4705327 13.5014976,24.7788368 13.7360152,24.9246316 C13.9705327,25.0704264 14.2788368,24.9985024 14.4246316,24.7639848 Z" fill="#000000" sketch:type="MSShapeGroup"/></g><text x="0" y="47" fill="#000000" font-size="5px" font-weight="bold" font-family="'Helvetica Neue', Helvetica, Arial-Unicode, Arial, Sans-serif">Created by Pham Thi Dieu Linh</text><text x="0" y="52" fill="#000000" font-size="5px" font-weight="bold" font-family="'Helvetica Neue', Helvetica, Arial-Unicode, Arial, Sans-serif">from the Noun Project</text></svg>